<?xml version="1.0" encoding="utf-8"?>
<!-- Generator: Adobe Illustrator 28.0.0, SVG Export Plug-In . SVG Version: 6.00 Build 0)  -->
<svg version="1.1" id="Слой_1" xmlns="http://www.w3.org/2000/svg" xmlns:xlink="http://www.w3.org/1999/xlink" x="0px" y="0px"
	 viewBox="0 0 1030 201" style="enable-background:new 0 0 1030 201;" xml:space="preserve">
<style type="text/css">
	.st0{fill:#FFDD2D;}
	.st1{fill:#333333;}
	.st2{fill:#FFFFFF;}
	.st3{fill-rule:evenodd;clip-rule:evenodd;fill:#333333;}
	.st4{fill:#1DA049;}
	.st5{fill:#23A038;}
	.st6{fill:url(#SVGID_1_);}
	.st7{fill:url(#SVGID_00000134941181746276202740000008648695520879161533_);}
	.st8{fill:url(#SVGID_00000111169102535849099530000004397584329142564480_);}
	.st9{fill:url(#SVGID_00000155123315929948108510000013739834733999273908_);}
	.st10{fill:url(#SVGID_00000109713848195424804780000013024967180354282167_);}
	.st11{fill:url(#SVGID_00000106859976458407597240000005939128766694877604_);}
	.st12{clip-path:url(#SVGID_00000158009667860075782810000017047336136238841002_);}
	.st13{fill:#FC3F1D;}
	.st14{fill:#5B57A2;}
	.st15{fill:#D90651;}
	.st16{fill:#FAB71C;}
	.st17{fill:#ED6F28;}
	.st18{fill:#63B231;}
	.st19{fill:#1787C9;}
	.st20{fill:#027F36;}
	.st21{fill:#984995;}
</style>
<g>
	<g>
		<path class="st0" d="M44.6,29.7H371c8.7,0,15.8,7.1,15.8,15.8v109c0,8.7-7.1,15.8-15.8,15.8H44.6c-8.7,0-15.8-7.1-15.8-15.8v-109
			C28.8,36.8,35.9,29.7,44.6,29.7z"/>
		<path class="st1" d="M204,97.5c-1.8-0.7-4.1-0.9-6.6-0.9h-14v-4.4h24.1v-7.5h-34v32.4h23c3.2,0,5.6-0.3,7.4-1
			c3.7-1.4,6.3-4.9,6.3-9.5C210.1,102.1,207.7,98.9,204,97.5L204,97.5z M199.1,108.7c-0.5,0.2-1.3,0.3-2.2,0.3h-13.5v-5.2h13.5
			c1.1,0,2,0.1,2.7,0.4c0.8,0.4,1.2,1.2,1.2,2.1C200.7,107.3,200.2,108.3,199.1,108.7z"/>
		<path class="st1" d="M237.8,84.7h-14.5l-13.3,32.4h11.2l1.8-4.7h15l1.9,4.7h11.1L237.8,84.7L237.8,84.7z M225.6,105.3l4.7-13.1
			h0.7l4.7,13.1H225.6z"/>
		<polygon class="st1" points="263.9,105.1 263.9,117.2 254,117.2 254,84.7 263.9,84.7 263.9,96.6 279.7,96.6 279.7,84.7 
			289.6,84.7 289.6,117.2 279.7,117.2 279.7,105.1 		"/>
		<polygon class="st1" points="305.3,104.9 305.3,117.2 295.4,117.2 295.4,84.7 305.3,84.7 305.3,96.9 308,96.9 319.9,84.7 
			332.3,84.7 316.5,100.3 332.9,117.2 319.8,117.2 308,104.9 		"/>
		<path class="st2" d="M76.1,63.9h78.8v39.6c0,10.2-5.4,19.5-14.2,24.6l-25.2,14.5l-25.2-14.5c-8.8-5.1-14.2-14.5-14.2-24.6
			L76.1,63.9L76.1,63.9z"/>
		<path class="st3" d="M97.7,84.7v12.3c1.7-1.9,4.7-3.2,8.3-3.2h3.8v14.3c0,3.8-1,7.1-2.6,9h16.6c-1.5-1.8-2.6-5.2-2.6-9V93.9h3.8
			c3.5,0,6.6,1.3,8.3,3.2V84.7C133.3,84.7,97.7,84.7,97.7,84.7z"/>
	</g>
	<g>
		<polygon class="st4" points="626.4,107.9 626.4,153.6 636.2,153.6 636.2,134.9 657.2,134.9 657.2,153.6 667,153.6 667,107.9 
			657.2,107.9 657.2,126.6 636.2,126.6 636.2,107.9 		"/>
		<polygon class="st4" points="689.2,135.1 695.3,135.1 710.4,153.6 723.2,153.6 703,129.9 720.6,107.9 709.3,107.9 694.6,127.4 
			689.2,127.4 689.2,107.9 679.4,107.9 679.4,153.6 689.2,153.6 		"/>
		<path class="st4" d="M609.4,153.6h10.4L600.6,108h-10l-19.7,45.6h10l4-9.2h20.9L609.4,153.6z M587.7,136.8l7.6-18.3l7.2,18.3
			H587.7z"/>
		<path class="st4" d="M550.3,125.6h-12v-10.2h25.8v-7.6h-35.7v45.6H549c11.5,0,18.1-5.2,18.1-14.3
			C567.1,130.4,561.1,125.6,550.3,125.6 M548.5,145.9h-10.3v-12.6h10.3c6.2,0,9.2,2.1,9.2,6.3C557.7,143.9,554.6,145.9,548.5,145.9"
			/>
		<polygon class="st4" points="648.1,55.6 658.4,48 623.9,48 623.9,93.7 658.4,93.7 658.4,86.1 633.7,86.1 633.7,74.3 654.8,74.3 
			654.8,66.8 633.7,66.8 633.7,55.6 		"/>
		<path class="st4" d="M597.8,65.8h-12V55.6h19.1l10.3-7.6h-39.3v45.6h20.6c11.5,0,18.1-5.2,18.1-14.3
			C614.7,70.6,608.7,65.8,597.8,65.8 M596.1,86.1h-10.3V73.3h10.3c6.2,0,9.2,2.1,9.2,6.3C605.3,83.9,602.2,86.1,596.1,86.1"/>
		<path class="st4" d="M686.3,48h-18.8v45.6h9.8V80.7h8.9c12,0,19.4-6.3,19.4-16.4S698.3,48,686.3,48 M686.1,73.1h-8.7V55.6h8.7
			c6.3,0,9.8,3.1,9.8,8.8C695.9,69.9,692.4,73.1,686.1,73.1"/>
		<path class="st4" d="M559.1,83.8c-2.6,1.4-5.5,2.1-8.5,2.1c-8.9,0-15.3-6.3-15.3-15.1s6.4-15,15.3-15c3.2,0,6.3,0.9,9,2.8l7.1-5.2
			l-0.5-0.4c-4.1-3.6-9.6-5.5-15.9-5.5c-6.8,0-13,2.3-17.5,6.5s-6.9,10.1-6.9,16.7c0,6.5,2.4,12.6,6.9,16.9
			c4.4,4.3,10.6,6.7,17.4,6.7c7.1,0,13.3-2.5,17.5-7l-6.4-4.7L559.1,83.8z"/>
		<g>
			<path class="st5" d="M508,76.6c1.9,2.5,3.5,5.2,4.8,8l-36.2,27l-15.1-9.6V90.5l15.1,9.6L508,76.6z"/>
			
				<linearGradient id="SVGID_1_" gradientUnits="userSpaceOnUse" x1="450.3581" y1="422.5525" x2="440.0876" y2="393.2572" gradientTransform="matrix(1 0 0 1 0 -294)">
				<stop  offset="0.14" style="stop-color:#EFE522"/>
				<stop  offset="0.3" style="stop-color:#E3E026"/>
				<stop  offset="0.58" style="stop-color:#C7D530"/>
				<stop  offset="0.89" style="stop-color:#A2C73F"/>
			</linearGradient>
			<path class="st6" d="M446,101.2c0-0.5,0-1,0-1.5l-9.2-0.5c0,0.7,0,1.3,0,2c0,5.3,1,10.5,3,15.4s4.9,9.3,8.6,13.1l6.5-6.6
				c-2.8-2.9-5.1-6.3-6.6-10C446.8,109.3,446,105.3,446,101.2z"/>
			
				<linearGradient id="SVGID_00000175283620033609498570000000450103859516285825_" gradientUnits="userSpaceOnUse" x1="451.0935" y1="368.39" x2="477.0126" y2="358.6437" gradientTransform="matrix(1 0 0 1 0 -294)">
				<stop  offset="6.000000e-02" style="stop-color:#1CA7DF"/>
				<stop  offset="0.54" style="stop-color:#3F8FCD"/>
				<stop  offset="0.92" style="stop-color:#3589C9"/>
			</linearGradient>
			<path style="fill:url(#SVGID_00000175283620033609498570000000450103859516285825_);" d="M476.6,70.3c0.5,0,1,0,1.5,0l0.5-9.3
				c-0.7,0-1.3,0-2,0c-5.2,0-10.4,1-15.2,3.1c-4.8,2-9.2,5-12.9,8.7l6.5,6.6c2.8-2.9,6.2-5.2,9.9-6.7
				C468.6,71.1,472.6,70.3,476.6,70.3z"/>
			
				<linearGradient id="SVGID_00000102522451520662247730000003414877360903047347_" gradientUnits="userSpaceOnUse" x1="473.9851" y1="429.8737" x2="503.2341" y2="423.3536" gradientTransform="matrix(1 0 0 1 0 -294)">
				<stop  offset="0.12" style="stop-color:#A2C73F"/>
				<stop  offset="0.28" style="stop-color:#88BE3F"/>
				<stop  offset="0.87" style="stop-color:#219F38"/>
			</linearGradient>
			<path style="fill:url(#SVGID_00000102522451520662247730000003414877360903047347_);" d="M476.6,132.2c-0.5,0-1,0-1.5,0l-0.5,9.3
				c0.7,0,1.3,0.1,2,0.1c5.2,0,10.4-1,15.2-3.1c4.8-2,9.2-5,12.9-8.7l-6.5-6.6c-2.8,2.9-6.2,5.2-9.9,6.7
				C484.6,131.4,480.6,132.2,476.6,132.2z"/>
			
				<linearGradient id="SVGID_00000001648346591938662670000011399021056702836926_" gradientUnits="userSpaceOnUse" x1="474.6165" y1="358.2461" x2="499.648" y2="365.8683" gradientTransform="matrix(1 0 0 1 0 -294)">
				<stop  offset="6.000000e-02" style="stop-color:#3589C9"/>
				<stop  offset="0.79" style="stop-color:#1589CB"/>
			</linearGradient>
			<path style="fill:url(#SVGID_00000001648346591938662670000011399021056702836926_);" d="M493.8,75.7l7.7-5.8
				c-7.1-5.8-15.9-8.9-25-8.9v9.3C482.7,70.3,488.7,72.2,493.8,75.7z"/>
			<path class="st5" d="M516.3,101.3c0-2.4-0.2-4.8-0.6-7.2l-8.6,6.4c0,0.3,0,0.6,0,0.8c0,4.3-0.9,8.6-2.6,12.6
				c-1.7,4-4.3,7.5-7.4,10.4l6.2,6.9c4.1-3.8,7.4-8.4,9.7-13.5C515.2,112.4,516.3,106.9,516.3,101.3z"/>
			
				<linearGradient id="SVGID_00000144326742901870058590000018066831447257169810_" gradientUnits="userSpaceOnUse" x1="449.3972" y1="421.1997" x2="476.6688" y2="431.2569" gradientTransform="matrix(1 0 0 1 0 -294)">
				<stop  offset="0.13" style="stop-color:#EFE522"/>
				<stop  offset="0.3" style="stop-color:#E8E224"/>
				<stop  offset="0.53" style="stop-color:#D6DA2C"/>
				<stop  offset="0.8" style="stop-color:#B9CF35"/>
				<stop  offset="0.98" style="stop-color:#A2C73F"/>
			</linearGradient>
			<path style="fill:url(#SVGID_00000144326742901870058590000018066831447257169810_);" d="M476.6,132.2c-4.3,0-8.5-0.9-12.4-2.7
				s-7.4-4.3-10.3-7.5l-6.8,6.2c3.7,4.2,8.3,7.5,13.3,9.8c5.1,2.3,10.6,3.5,16.1,3.5v-9.3H476.6z"/>
			
				<linearGradient id="SVGID_00000080199898052685951460000017457020414720031409_" gradientUnits="userSpaceOnUse" x1="440.0477" y1="396.2888" x2="451.2158" y2="367.6221" gradientTransform="matrix(1 0 0 1 0 -294)">
				<stop  offset="7.000000e-02" style="stop-color:#A2C73F"/>
				<stop  offset="0.26" style="stop-color:#82BE61"/>
				<stop  offset="0.92" style="stop-color:#1CA7DF"/>
			</linearGradient>
			<path style="fill:url(#SVGID_00000080199898052685951460000017457020414720031409_);" d="M456.1,78.3l-6.2-6.9
				c-4.1,3.8-7.4,8.4-9.7,13.5s-3.4,10.7-3.4,16.3h9.2c0-4.3,0.9-8.6,2.6-12.6C450.4,84.7,452.9,81.2,456.1,78.3z"/>
		</g>
	</g>
	<g>
		<g>
			<defs>
				<path id="SVGID_00000050634135676165206340000003446946617525102213_" d="M827,46.5L827,46.5c29.7,0,53.9,24.1,53.9,53.9v0.2
					c0,29.7-24.1,53.9-53.9,53.9h0c-29.7,0-53.9-24.1-53.9-53.9v-0.2C773.2,70.6,797.3,46.5,827,46.5z"/>
			</defs>
			<clipPath id="SVGID_00000178905168926275304970000008665283945097439397_">
				<use xlink:href="#SVGID_00000050634135676165206340000003446946617525102213_"  style="overflow:visible;"/>
			</clipPath>
			<g style="clip-path:url(#SVGID_00000178905168926275304970000008665283945097439397_);">
				<ellipse class="st13" cx="827" cy="100.4" rx="53.9" ry="53.9"/>
				<path class="st2" d="M834.6,132.8h11.3V68.1h-16.4c-16.5,0-25.1,8.5-25.1,21c0,10,4.7,15.8,13.2,21.9l-14.7,21.9h12.2l16.4-24.5
					l-5.7-3.8c-6.9-4.7-10.2-8.3-10.2-16.1c0-6.9,4.8-11.5,14-11.5h5V132.8z"/>
			</g>
		</g>
	</g>
	<g>
		<path class="st14" d="M931,68.8l13.6,24.3v15L931,132.5V68.8z"/>
		<path class="st15" d="M983.3,84.2l12.8-7.9h26.2l-39,23.9L983.3,84.2L983.3,84.2z"/>
		<path class="st16" d="M983.3,68.5l0.1,32.3l-13.7-8.4V44.2L983.3,68.5L983.3,68.5z"/>
		<path class="st17" d="M1022.4,76.4h-26.2l-12.9-7.9l-13.6-24.4L1022.4,76.4L1022.4,76.4z"/>
		<path class="st18" d="M983.4,132.4v-15.7l-13.7-8.2v48.4L983.4,132.4z"/>
		<path class="st19" d="M996.1,124.7l-51.5-31.6l-13.7-24.4l91.3,56H996.1L996.1,124.7z"/>
		<path class="st20" d="M969.7,156.9l13.7-24.4l12.8-7.7h26.2L969.7,156.9z"/>
		<path class="st21" d="M931,132.2l38.8-23.8l-13-8l-12.1,7.4L931,132.2z"/>
	</g>
</g>
</svg>
